<svg xmlns="http://www.w3.org/2000/svg" fill="none" viewBox="-2.5 -2.5 80 80" id="Startup--Streamline-Sharp.svg" height="80" width="80"><desc>Startup Streamline Icon: https://streamlinehq.com</desc><g id="startup--shop-rocket-launch-startup"><path id="Vector 2952" fill="#a4a4a4" d="M15.62503125 37.5 46.875 6.25003125l21.875 0L68.75 28.125 37.5 59.375l-21.87496875 -21.875Z" stroke-width="5"></path><path id="Vector 2950" fill="#ffffff00" d="M15.625 18.75 6.25 28.125l9.375 9.375 18.75 -18.75H15.625Z" stroke-width="5"></path><path id="Vector 2951" fill="#ffffff00" d="m56.25 59.375 -9.375 9.375 -9.375 -9.375 18.75 -18.75 0 18.75Z" stroke-width="5"></path><path id="Vector 48" stroke="#6d6d6d" d="M15.62503125 37.5 46.875 6.25003125l21.875 0L68.75 28.125 37.5 59.375l-21.87496875 -21.875Z" stroke-width="5"></path><path id="Vector 184" stroke="#6d6d6d" d="M15.625 18.75 6.25 28.125l9.375 9.375 18.75 -18.75H15.625Z" stroke-width="5"></path><path id="Vector 185" stroke="#6d6d6d" d="m56.25 59.375 -9.375 9.375 -9.375 -9.375 18.75 -18.75 0 18.75Z" stroke-width="5"></path><path id="Vector 186" stroke="#6d6d6d" d="m21.875 53.125 -15.625 15.625" stroke-width="5"></path><path id="Vector 187" stroke="#6d6d6d" d="m31.25 62.5 -6.25 6.25" stroke-width="5"></path><path id="Vector 188" stroke="#6d6d6d" d="m12.5 43.75 -6.25 6.25" stroke-width="5"></path><path id="Vector 2949" stroke="#6d6d6d" d="m51.61125 23.3886875 -6.3475 6.347625" stroke-width="5"></path></g></svg>