<svg xmlns="http://www.w3.org/2000/svg" fill="none" viewBox="-2.5 -2.5 80 80" id="Dollar-Increase--Streamline-Sharp.svg" height="80" width="80"><desc>Dollar Increase Streamline Icon: https://streamlinehq.com</desc><g id="dollar-increase--dollar-increase-arrow-up-fluctuate-investment"><path id="Ellipse 20" fill="#a4a4a4" d="M4.6875 27.990625a22.459375 22.459375 0 1 1 44.915625 0 22.459375 22.459375 0 0 1 -44.915625 0Z" stroke-width="5"></path><path id="Vector 2454" stroke="#6d6d6d" d="m25.71875 68.75 15.312500000000002 -15.312500000000002 10.9375 10.9375 17.5 -17.5" stroke-width="5"></path><path id="Vector 2455" stroke="#6d6d6d" d="M52.28125 46.875h17.1875v17.1875" stroke-width="5"></path><path id="Ellipse 19" stroke="#6d6d6d" d="M45.146874999999994 41.418749999999996A22.459375 22.459375 0 1 0 31.25 50.075" stroke-width="5"></path><path id="Vector 2947" stroke="#6d6d6d" d="M27.146874999999998 18.615624999999998v-6.25" stroke-width="5"></path><path id="Vector 2948" stroke="#6d6d6d" d="M27.146874999999998 43.615625v-6.25" stroke-width="5"></path><path id="Vector 3037" stroke="#6d6d6d" d="M34.178125 23.303124999999998v-1.5625a3.125 3.125 0 0 0 -3.125 -3.125h-7.8125a3.125 3.125 0 0 0 -3.125 3.125v1.396875a3.125 3.125 0 0 0 2.446875 3.053125l9.165624999999999 2.0375a3.125 3.125 0 0 1 2.45 3.05v2.9593749999999996a3.125 3.125 0 0 1 -3.125 3.125h-7.8125a3.125 3.125 0 0 1 -3.125 -3.125v-1.5625" stroke-width="5"></path></g></svg>